<svg width="33" height="42" viewBox="0 0 33 42" fill="none" xmlns="http://www.w3.org/2000/svg">
<path d="M26.2359 11.4943C26.2359 5.69847 21.7052 1 16.1164 1C10.5275 1 5.99683 5.69847 5.99683 11.4943" stroke="#106EBE" stroke-width="2"/>
<rect x="1" y="22.9888" width="30.9822" height="17.4895" stroke="#106EBE" stroke-width="2"/>
<rect x="5.62187" y="11.8689" width="0.749595" height="9.74473" stroke="#106EBE" stroke-width="0.749595"/>
<rect x="25.8611" y="11.8689" width="0.749595" height="9.74473" stroke="#106EBE" stroke-width="0.749595"/>
<path d="M19.7389 31.3585C19.7389 32.8971 18.3356 34.2317 16.4909 34.2317C14.6462 34.2317 13.2429 32.8971 13.2429 31.3585C13.2429 29.82 14.6462 28.4854 16.4909 28.4854C18.3356 28.4854 19.7389 29.82 19.7389 31.3585Z" stroke="#106EBE"/>
<path d="M19.7389 31.3585C19.7389 32.8971 18.3356 34.2317 16.4909 34.2317C14.6462 34.2317 13.2429 32.8971 13.2429 31.3585C13.2429 29.82 14.6462 28.4854 16.4909 28.4854C18.3356 28.4854 19.7389 29.82 19.7389 31.3585Z" stroke="#106EBE"/>
</svg>
